<?xml version="1.0" standalone="no"?>
<!DOCTYPE svg PUBLIC "-//W3C//DTD SVG 20010904//EN"
 "http://www.w3.org/TR/2001/REC-SVG-20010904/DTD/svg10.dtd">
<svg version="1.0" xmlns="http://www.w3.org/2000/svg"
 width="499.000000pt" height="499.000000pt" viewBox="0 0 499.000000 499.000000"
 preserveAspectRatio="xMidYMid meet">

<g transform="translate(0.000000,499.000000) scale(0.100000,-0.100000)"
fill="#000000" stroke="none">
<path d="M2225 4224 c-754 -118 -1347 -716 -1460 -1471 -19 -130 -20 -273 -2
-273 9 0 16 40 25 148 49 611 409 1141 957 1407 477 233 1027 233 1500 0 550
-270 909 -797 957 -1407 9 -108 16 -148 25 -148 20 0 16 154 -7 295 -60 372
-222 688 -490 955 -274 273 -608 441 -985 495 -125 18 -400 17 -520 -1z"/>
<path d="M2315 4124 c-301 -45 -552 -141 -765 -292 -122 -86 -306 -270 -392
-392 -126 -177 -224 -408 -269 -630 -24 -119 -37 -330 -21 -330 7 0 12 10 12
23 0 105 49 418 69 439 3 4 31 12 61 17 l55 9 -52 1 c-29 0 -53 5 -53 9 0 14
36 113 63 175 22 49 30 57 54 58 24 2 24 2 5 6 -12 2 -22 8 -22 11 0 4 26 50
58 102 l57 95 200 5 200 6 -194 2 -193 2 37 48 c85 105 105 122 155 124 36 1
39 2 13 5 -18 2 -33 8 -33 12 0 15 123 124 208 185 381 272 909 363 1357 235
246 -70 523 -225 660 -370 l40 -42 -185 5 c-102 3 -163 2 -135 -3 28 -4 114
-8 192 -8 l141 -1 67 -72 c59 -65 205 -270 205 -288 0 -4 -53 -13 -117 -20
-65 -7 -125 -16 -133 -21 -10 -6 -5 -7 15 -4 95 14 235 26 243 21 11 -7 87
-178 97 -218 6 -22 4 -28 -9 -28 -9 0 -16 -4 -16 -9 0 -5 9 -7 19 -4 17 4 22
-4 35 -49 30 -101 46 -193 58 -325 14 -165 33 -180 25 -20 -38 742 -596 1374
-1337 1513 -82 16 -408 28 -475 18z"/>
<path d="M2388 3952 c-35 -3 -56 -22 -24 -22 17 0 26 -22 26 -61 0 -16 5 -29
11 -29 8 0 10 15 6 46 -4 39 -2 47 16 53 28 10 10 17 -35 13z"/>
<path d="M2605 3950 c-3 -5 3 -10 14 -10 34 0 35 -20 1 -55 l-32 -33 37 -4
c20 -2 38 0 41 4 3 4 -4 8 -15 8 -12 0 -21 5 -21 10 0 6 5 10 10 10 6 0 15 11
22 25 8 19 8 28 -2 40 -14 17 -46 20 -55 5z"/>
<path d="M2735 3933 c-8 -8 -15 -29 -15 -47 0 -59 48 -74 71 -22 24 51 -20
105 -56 69z m41 -18 c9 -23 -5 -65 -21 -65 -10 0 -15 11 -15 33 0 19 3 37 7
40 11 11 23 8 29 -8z"/>
<path d="M2256 3927 c-24 -18 -17 -50 13 -57 35 -8 37 -26 4 -38 l-28 -10 26
-1 c53 -2 65 52 14 65 -30 7 -34 34 -5 34 11 0 20 5 20 10 0 14 -23 12 -44 -3z"/>
<path d="M2860 3911 c0 -5 5 -11 11 -13 8 -3 8 -14 1 -41 -6 -20 -6 -39 -2
-42 5 -3 14 11 19 32 16 56 14 73 -9 73 -11 0 -20 -4 -20 -9z"/>
<path d="M2133 3900 c-22 -9 -22 -10 -6 -57 9 -26 17 -50 19 -51 5 -7 64 10
64 18 0 5 -12 8 -26 7 -34 -3 -41 16 -12 31 23 11 23 11 -4 11 -32 1 -40 31
-8 31 11 0 20 5 20 10 0 12 -17 12 -47 0z"/>
<path d="M2972 3878 c-19 -19 -14 -36 16 -52 28 -15 25 -19 -23 -29 -13 -3 -8
-5 12 -6 23 -1 37 6 52 25 11 14 25 23 31 19 19 -12 10 10 -14 33 -26 24 -56
28 -74 10z m48 -16 c0 -10 -3 -22 -7 -25 -10 -11 -32 13 -26 29 8 20 33 17 33
-4z"/>
<path d="M1927 3863 c-12 -12 -7 -22 8 -17 8 4 15 10 15 15 0 11 -14 12 -23 2z"/>
<path d="M2470 3861 c0 -6 5 -13 10 -16 6 -3 10 1 10 9 0 9 -4 16 -10 16 -5 0
-10 -4 -10 -9z"/>
<path d="M1744 3786 c-8 -21 13 -46 32 -39 20 8 13 47 -9 51 -9 2 -20 -4 -23
-12z"/>
<path d="M2680 3790 l-115 -6 112 -2 c66 -1 114 2 118 8 3 6 5 9 3 8 -2 -1
-55 -5 -118 -8z"/>
<path d="M3210 3785 c-15 -17 -5 -35 20 -35 22 0 33 23 17 39 -15 15 -22 14
-37 -4z"/>
<path d="M2820 3639 c0 -24 -5 -51 -10 -59 -7 -11 -10 -8 -10 16 0 16 -7 39
-15 50 -13 17 -14 13 -15 -48 0 -39 -4 -68 -10 -68 -5 0 -10 8 -10 18 0 19
-18 42 -32 42 -5 0 -6 -28 -3 -62 6 -58 3 -69 -28 -133 -19 -38 -51 -96 -71
-128 -20 -31 -56 -100 -80 -151 -54 -117 -74 -132 -146 -117 -47 10 -55 9 -81
-10 -35 -24 -35 -23 21 -52 24 -12 43 -26 43 -32 1 -9 -19 -24 -89 -68 -115
-71 -141 -88 -155 -102 -9 -9 -30 -20 -45 -24 -27 -7 -26 -8 19 -15 26 -4 47
-11 47 -15 0 -8 67 -5 209 10 82 8 101 14 162 50 38 23 69 45 69 50 0 4 17 11
37 15 36 7 39 5 96 -56 56 -62 59 -64 105 -62 70 4 112 20 123 49 5 13 6 29 3
34 -5 9 -9 27 -19 89 -2 17 -99 39 -172 40 -24 0 -43 3 -43 8 1 4 14 25 30 47
58 78 116 171 130 205 7 19 22 44 32 56 10 11 18 29 18 40 0 10 6 37 14 59 17
51 15 153 -4 165 -12 7 -12 11 0 27 8 10 2 7 -14 -7 l-28 -25 21 40 c21 40 28
75 14 75 -5 -1 -19 -23 -32 -51 -27 -58 -38 -59 -21 -2 6 21 10 56 8 78 l-3
40 -20 -55 -20 -55 -5 62 c-6 73 -20 95 -20 32z"/>
<path d="M1953 3619 c-24 -17 -43 -34 -43 -39 0 -5 -24 -28 -54 -50 -43 -33
-59 -54 -86 -113 -29 -62 -54 -93 -180 -222 -153 -155 -192 -208 -165 -219 20
-7 18 -26 -5 -56 l-19 -25 -23 23 c-20 19 -21 25 -10 43 10 16 10 22 -3 35 -8
9 -15 26 -15 38 0 13 -7 38 -17 56 -16 32 -17 33 -24 12 -5 -13 -15 -25 -23
-28 -11 -4 -13 -12 -6 -30 11 -28 3 -54 -16 -54 -17 0 -17 -2 -3 -34 10 -20 9
-30 -4 -50 -9 -13 -26 -27 -37 -31 -19 -6 -19 -8 -3 -31 15 -23 15 -26 -7 -49
-13 -14 -29 -25 -37 -25 -18 0 -16 -7 8 -31 25 -25 22 -46 -10 -68 -24 -16
-24 -15 -17 13 5 20 3 32 -6 37 -7 4 -13 18 -14 31 -1 13 -7 45 -14 71 -12 44
-14 46 -26 28 -8 -11 -11 -26 -8 -34 3 -8 -2 -21 -10 -29 -11 -11 -12 -18 -4
-26 12 -12 -14 -62 -32 -62 -6 0 -5 -9 2 -21 11 -17 10 -23 -8 -38 -19 -15
-20 -19 -7 -37 12 -17 12 -21 -7 -36 -17 -14 -20 -24 -14 -52 5 -32 3 -37 -20
-47 -15 -7 -25 -19 -24 -28 3 -14 -24 -16 -230 -19 l-232 -2 0 -465 c0 -288 4
-465 10 -465 5 0 94 15 197 34 558 102 1075 153 1653 163 690 11 1324 -43
1985 -172 72 -14 133 -25 138 -25 4 0 7 209 7 465 l0 465 -232 2 c-206 3 -233
5 -230 19 1 9 -9 21 -24 28 -23 10 -25 15 -20 47 6 28 3 38 -14 52 -19 15 -19
19 -7 36 13 18 12 22 -7 37 -18 15 -19 21 -8 38 7 12 8 21 2 21 -18 0 -44 50
-32 62 8 8 7 15 -4 26 -8 8 -13 21 -10 29 3 8 0 23 -8 34 -12 18 -14 16 -26
-28 -7 -26 -13 -58 -14 -71 -1 -13 -7 -27 -14 -31 -9 -5 -11 -17 -6 -37 7 -28
7 -29 -17 -13 -32 22 -35 43 -10 68 24 24 26 31 8 31 -8 0 -24 11 -37 25 -22
23 -22 26 -7 49 16 23 16 25 -3 31 -11 4 -28 18 -37 31 -13 20 -14 30 -4 50
14 32 14 34 -3 34 -20 0 -29 35 -17 59 8 14 7 20 -4 25 -9 3 -19 15 -24 28 -7
21 -8 20 -24 -12 -10 -18 -17 -43 -17 -55 0 -11 -6 -30 -14 -40 -10 -14 -11
-23 -3 -37 9 -14 8 -21 -6 -35 -17 -17 -19 -17 -33 2 -8 11 -13 29 -10 41 4
15 -6 31 -34 59 -43 42 -49 41 -25 -5 8 -16 12 -36 9 -45 -4 -9 1 -24 11 -35
13 -14 14 -23 6 -39 -15 -28 -14 -31 14 -31 50 0 54 -69 5 -85 -16 -5 -19 -12
-14 -28 4 -12 11 -24 15 -27 5 -4 2 -16 -7 -29 -15 -21 -17 -21 -35 -5 -17 16
-18 19 -5 40 14 20 13 22 -4 27 -23 6 -41 46 -30 66 5 9 2 21 -7 29 -8 8 -13
24 -11 36 1 12 -5 32 -15 46 -11 15 -17 19 -17 10 0 -8 -7 -24 -15 -34 -14
-18 -15 -18 -21 -1 -5 11 -1 21 9 26 23 13 12 106 -17 139 -18 21 -56 91 -56
105 0 2 8 6 18 8 11 3 7 5 -10 6 -16 1 -29 8 -32 19 -3 9 -17 31 -31 47 l-25
30 6 -27 c8 -38 -4 -35 -18 3 -6 16 -12 28 -14 27 -2 -2 10 -45 25 -96 16 -51
27 -92 25 -92 -2 0 -11 15 -20 33 -9 17 -21 35 -26 38 -5 3 -26 61 -47 129
l-38 123 -48 -69 c-27 -38 -56 -76 -66 -84 -9 -8 -29 -44 -44 -80 -15 -36 -46
-94 -70 -130 -23 -36 -45 -76 -49 -90 -6 -23 -6 -23 5 -5 7 11 26 36 43 57 17
20 39 47 49 60 l18 23 -5 -25 c-18 -93 -18 -94 10 -135 15 -22 29 -54 31 -72
8 -60 19 -88 36 -91 14 -3 17 5 17 40 0 53 14 81 23 46 4 -12 7 -36 7 -51 0
-18 4 -26 11 -22 14 9 59 -34 59 -57 0 -19 8 -22 33 -12 12 4 13 11 4 34 -12
33 -12 35 22 45 21 6 23 5 16 -11 -4 -11 -7 -28 -7 -39 1 -11 -8 -29 -19 -41
-13 -14 -17 -24 -10 -29 16 -9 13 -31 -5 -50 -10 -9 -14 -24 -10 -38 3 -14 -2
-29 -16 -44 -25 -27 -43 -30 -34 -7 4 10 -1 25 -10 35 -9 10 -13 23 -9 28 3 6
3 17 -2 24 -4 6 -8 18 -8 26 0 23 -25 25 -25 2 0 -11 -4 -22 -9 -25 -5 -3 -7
-15 -4 -26 3 -12 -1 -22 -10 -26 -9 -3 -13 -13 -10 -25 3 -10 0 -26 -7 -34 -7
-9 -10 -18 -7 -22 4 -3 1 -13 -6 -21 -6 -8 -12 -27 -12 -41 0 -25 -2 -26 -67
-29 -77 -3 -68 -9 -223 139 -139 132 -151 140 -180 127 -14 -6 -25 -15 -25
-19 0 -4 27 -37 60 -73 55 -61 71 -86 54 -86 -4 0 -38 30 -77 66 -47 45 -72
62 -77 54 -6 -9 -9 -9 -15 0 -8 12 -83 5 -98 -10 -12 -11 17 -55 77 -118 43
-45 47 -52 24 -43 -82 31 -127 62 -155 108 l-30 48 -71 -3 -72 -4 0 -33 c0
-19 5 -37 10 -40 12 -7 13 -45 2 -45 -20 0 -52 48 -52 78 0 35 -14 46 -73 56
-33 6 -38 4 -46 -16 -5 -14 -5 -28 1 -35 5 -7 7 -21 3 -33 -4 -13 -1 -22 9
-26 22 -8 20 -40 -4 -64 -26 -26 -44 -26 -37 1 3 12 0 28 -9 36 -8 8 -12 19
-8 24 3 6 0 16 -6 24 -7 8 -10 24 -7 34 3 12 -1 22 -10 25 -9 4 -13 14 -10 26
3 11 1 23 -4 26 -5 3 -9 14 -9 25 0 23 -25 21 -25 -2 0 -8 -4 -20 -8 -26 -5
-7 -5 -18 -2 -24 4 -5 0 -18 -9 -28 -9 -10 -14 -25 -10 -35 9 -23 -9 -20 -34
7 -14 15 -19 30 -16 44 4 14 0 29 -11 39 -11 11 -14 25 -10 42 4 15 0 31 -9
41 -8 9 -15 25 -16 36 0 32 -7 69 -15 88 -7 17 -8 17 -21 -2 -8 -11 -11 -26
-8 -34 3 -8 -2 -21 -10 -29 -11 -11 -12 -18 -3 -27 8 -8 5 -18 -10 -40 -13
-16 -20 -37 -17 -48 3 -11 -2 -25 -11 -33 -20 -17 -30 -7 -16 17 8 15 6 23
-10 36 -20 18 -24 43 -10 66 6 10 3 20 -12 32 -12 9 -23 30 -24 46 -4 41 -9
75 -18 101 l-8 23 -16 -23 c-8 -13 -14 -32 -13 -44 2 -11 -4 -26 -12 -33 -11
-9 -13 -19 -7 -30 12 -22 -5 -62 -29 -68 -20 -5 -20 -7 -4 -24 16 -18 16 -20
-2 -40 l-19 -21 -18 23 c-10 12 -14 25 -9 28 5 3 12 16 16 29 6 16 3 22 -8 22
-9 0 -23 11 -31 24 -22 34 -3 78 31 70 34 -9 45 2 32 32 -10 22 -9 27 5 35 11
7 15 18 12 32 -3 15 5 33 25 57 l30 35 18 -21 c9 -11 23 -19 30 -16 10 3 13
-7 10 -39 -4 -55 22 -67 47 -20 8 17 26 33 40 37 13 3 27 15 30 25 4 10 10 19
15 19 6 0 5 -11 0 -26 -13 -34 -13 -57 1 -52 7 2 24 46 40 97 15 51 30 95 32
98 3 2 33 -36 66 -85 33 -50 70 -93 81 -97 11 -4 45 -30 74 -58 42 -42 55 -63
65 -104 l13 -52 39 19 c21 11 39 25 39 31 0 5 -9 27 -20 49 -15 30 -20 58 -19
117 l1 78 22 -72 c16 -48 33 -80 52 -96 16 -14 31 -24 33 -22 1 2 -6 32 -18
67 -11 35 -20 72 -19 83 1 11 -4 37 -11 58 -17 52 -8 56 22 12 23 -34 26 -35
32 -16 4 13 -3 37 -22 68 -25 44 -28 45 -33 23 -5 -21 -11 -13 -44 55 -20 44
-40 94 -43 110 -3 17 -16 49 -29 72 -16 27 -24 58 -24 87 0 52 -36 156 -53
156 -7 -1 -31 -14 -54 -31z m77 -203 c11 -66 17 -81 42 -99 22 -16 28 -29 28
-58 0 -21 5 -41 10 -44 11 -7 14 -105 3 -104 -5 0 -29 44 -55 97 -45 94 -47
101 -52 212 -6 126 4 124 24 -4z m1150 -205 c0 -11 4 -22 9 -25 11 -7 43 -97
37 -104 -3 -2 -18 20 -35 50 -31 53 -40 98 -21 98 6 0 10 -9 10 -19z m46 -206
c14 -30 28 -55 31 -55 3 0 12 8 19 18 13 16 16 15 39 -13 14 -16 25 -40 25
-51 0 -26 25 -50 35 -34 4 6 4 17 2 24 -4 11 -1 11 18 2 18 -8 21 -14 14 -29
-6 -10 -7 -26 -4 -36 4 -13 -3 -26 -21 -40 -21 -17 -25 -24 -16 -33 18 -18 14
-46 -7 -65 -16 -13 -18 -21 -10 -36 14 -24 4 -34 -16 -17 -10 8 -14 22 -11 33
3 12 -3 31 -15 45 -11 14 -17 33 -14 43 3 9 1 20 -5 24 -6 4 -10 17 -9 28 1
12 -1 30 -6 39 -6 16 -9 16 -25 -4 -17 -21 -18 -21 -24 -2 -22 70 -43 214 -31
214 3 0 17 -25 31 -55z m-1392 -500 c3 -9 0 -15 -9 -15 -8 0 -15 7 -15 15 0 8
4 15 9 15 5 0 11 -7 15 -15z m1346 0 c0 -8 -7 -15 -15 -15 -9 0 -12 6 -9 15 4
8 10 15 15 15 5 0 9 -7 9 -15z m-2222 -167 c5 -7 13 -29 17 -48 4 -19 35 -152
70 -295 35 -143 65 -269 67 -280 3 -17 -6 -21 -65 -31 -68 -11 -69 -11 -78 13
-5 13 -9 34 -9 46 0 42 -13 49 -77 42 -33 -4 -65 -10 -70 -14 -5 -3 -15 -33
-21 -65 -7 -33 -14 -61 -16 -64 -8 -7 -130 -31 -135 -26 -5 5 1 37 86 444 30
146 60 271 65 278 7 7 37 12 83 12 46 0 76 -5 83 -12z m438 -17 c48 -22 78
-51 107 -106 19 -35 22 -56 22 -160 0 -104 -3 -127 -23 -170 -28 -60 -73 -110
-127 -137 -32 -17 -182 -48 -232 -48 -10 0 -13 71 -13 320 l0 320 113 0 c88 0
121 -4 153 -19z m278 2 c2 -10 19 -83 36 -163 17 -80 33 -156 37 -170 3 -17
18 32 44 150 21 96 38 181 39 188 0 8 22 12 75 12 41 0 75 -2 75 -5 0 -2 -24
-93 -54 -202 -30 -109 -64 -235 -76 -279 l-21 -81 -72 -6 c-40 -3 -75 -2 -79
1 -5 6 -62 213 -148 540 l-8 32 73 0 c62 0 74 -3 79 -17z m606 -43 l0 -60 -75
0 -75 0 0 -40 0 -40 70 0 70 0 0 -59 c0 -67 -5 -71 -92 -71 l-48 0 0 -45 0
-45 75 0 75 0 0 -60 c0 -40 -4 -62 -12 -65 -7 -2 -70 -5 -141 -7 l-127 -3 0
278 0 277 140 0 140 0 0 -60z m296 -117 l79 -177 3 177 2 177 55 0 c30 0 55
-3 55 -7 0 -5 1 -127 2 -273 l2 -265 -83 -3 -82 -3 -48 103 c-26 57 -63 139
-82 182 l-34 79 -5 -178 -5 -178 -47 1 c-27 0 -52 1 -58 1 -6 1 -10 98 -10
271 l0 270 88 0 89 0 79 -177z m592 115 l-3 -63 -57 -3 -58 -3 0 -214 0 -215
-65 0 -65 0 0 215 0 215 -40 1 c-22 1 -44 3 -50 4 -5 1 -14 3 -20 4 -11 1 -14
104 -3 114 3 4 87 7 185 7 l179 0 -3 -62z m162 -149 c4 -185 7 -209 24 -228
27 -29 71 -28 92 4 12 19 16 49 15 137 -1 62 1 155 5 206 l7 92 64 0 65 0 -4
-227 c-3 -207 -5 -232 -24 -274 -33 -70 -74 -94 -159 -94 -83 0 -140 27 -179
84 -38 55 -45 109 -46 319 l0 193 68 -3 67 -3 5 -206z m589 191 c22 -11 48
-34 59 -52 45 -73 37 -204 -17 -269 l-28 -33 49 -111 c64 -142 81 -185 77
-189 -2 -2 -35 1 -73 8 l-69 11 -50 123 c-65 158 -77 160 -77 8 0 -103 -2
-114 -17 -111 -10 2 -39 7 -65 10 l-48 6 0 310 0 309 110 0 c90 0 118 -4 149
-20z m435 -7 c3 -16 4 -50 2 -78 l-4 -50 -76 -3 -76 -3 0 -49 0 -50 39 0 c21
0 53 -3 70 -6 l31 -6 0 -80 0 -79 -70 7 -70 7 0 -61 0 -61 38 -6 c20 -4 55
-10 77 -14 l40 -7 2 -77 c1 -42 -2 -79 -5 -81 -4 -2 -54 4 -112 15 -58 10
-120 21 -137 24 l-33 6 0 339 0 340 139 0 139 0 6 -27z"/>
<path d="M3350 2820 c0 -11 7 -20 15 -20 13 0 14 4 5 20 -6 11 -13 20 -15 20
-3 0 -5 -9 -5 -20z"/>
<path d="M855 2079 c-9 -62 -19 -119 -22 -126 -4 -10 7 -13 41 -13 25 0 46 4
46 8 0 13 -42 237 -45 240 -1 2 -10 -48 -20 -109z"/>
<path d="M1260 2030 c0 -188 -2 -184 64 -156 52 22 69 69 64 181 -3 83 -6 96
-27 119 -18 19 -35 26 -63 26 l-38 0 0 -170z"/>
<path d="M3790 2140 c0 -70 0 -70 28 -70 39 0 52 17 52 66 0 45 -24 74 -62 74
-16 0 -18 -10 -18 -70z"/>
<path d="M2288 3623 c39 -2 105 -2 145 0 39 1 7 3 -73 3 -80 0 -112 -2 -72 -3z"/>
<path d="M3373 3393 c32 -2 81 -2 110 0 29 2 3 3 -58 3 -60 0 -84 -1 -52 -3z"/>
<path d="M1480 3240 l-85 -6 93 -2 c56 -1 92 2 92 8 0 6 -3 9 -7 8 -5 -1 -46
-5 -93 -8z"/>
<path d="M2346 3195 c55 -78 76 -105 85 -105 20 0 6 23 -52 82 -48 50 -55 55
-33 23z"/>
<path d="M2260 3182 c0 -23 62 -122 76 -122 18 0 11 13 -40 85 -20 27 -36 44
-36 37z"/>
<path d="M3405 3160 c10 -11 20 -20 23 -20 3 0 -3 9 -13 20 -10 11 -20 20 -23
20 -3 0 3 -9 13 -20z"/>
<path d="M1686 2985 c-9 -26 -7 -32 5 -12 6 10 9 21 6 23 -2 3 -7 -2 -11 -11z"/>
<path d="M3908 2983 c7 -3 16 -2 19 1 4 3 -2 6 -13 5 -11 0 -14 -3 -6 -6z"/>
<path d="M1768 2905 c-3 -14 -1 -25 3 -25 5 0 9 11 9 25 0 14 -2 25 -4 25 -2
0 -6 -11 -8 -25z"/>
<path d="M2001 2770 c1 -36 12 -60 26 -52 8 5 6 17 -8 42 -17 32 -18 33 -18
10z"/>
<path d="M4033 2773 c9 -2 23 -2 30 0 6 3 -1 5 -18 5 -16 0 -22 -2 -12 -5z"/>
<path d="M2090 1624 c-25 -2 -130 -8 -235 -15 -104 -6 -199 -15 -209 -19 -17
-6 -9 -15 50 -64 119 -99 308 -199 454 -240 167 -47 381 -59 551 -30 224 38
460 149 619 292 l54 49 -94 7 c-275 20 -449 25 -780 24 -201 -1 -385 -3 -410
-4z"/>
<path d="M3752 1488 c-62 -78 -207 -219 -287 -280 -308 -234 -723 -355 -1095
-319 -337 32 -614 139 -865 336 -80 63 -223 205 -281 279 -17 21 -36 37 -43
35 -18 -6 86 -135 183 -227 252 -239 557 -386 909 -438 144 -21 397 -14 537
15 316 65 587 206 816 423 76 73 194 211 194 229 0 22 -21 5 -68 -53z"/>
<path d="M1055 1520 c-15 -23 146 -215 279 -332 230 -203 503 -341 800 -404
166 -35 448 -44 616 -19 348 51 664 203 931 445 82 74 217 230 252 289 18 30
18 31 -1 31 -13 0 -40 -28 -78 -77 -165 -222 -428 -425 -693 -537 -560 -237
-1207 -156 -1698 210 -99 75 -263 238 -332 332 -54 72 -64 81 -76 62z"/>
<path d="M1414 1505 c-4 -9 -2 -21 4 -27 15 -15 44 -1 40 19 -4 23 -36 29 -44
8z"/>
<path d="M3478 1468 c-8 -21 2 -38 22 -38 19 0 30 17 23 38 -3 6 -13 12 -23
12 -10 0 -20 -6 -22 -12z"/>
<path d="M1530 1405 c-26 -32 13 -81 48 -59 34 22 22 74 -18 74 -10 0 -23 -7
-30 -15z"/>
<path d="M3312 1338 c-32 -32 18 -87 53 -58 28 23 12 70 -25 70 -9 0 -21 -5
-28 -12z"/>
<path d="M1781 1238 c-18 -32 -31 -61 -30 -62 2 -2 18 -11 36 -20 23 -11 34
-13 39 -5 4 7 -1 16 -10 21 -27 15 -20 39 9 32 28 -7 34 10 9 24 -24 13 -8 35
16 22 25 -13 30 -13 30 3 0 7 -15 20 -33 29 l-33 16 -33 -60z"/>
<path d="M3025 1226 c-19 -14 -19 -15 5 -67 30 -67 32 -70 49 -60 10 6 10 13
2 28 -15 29 -2 35 26 13 13 -10 31 -16 40 -13 13 5 11 10 -11 28 -18 14 -25
27 -20 38 15 40 -50 63 -91 33z m55 -32 c0 -16 -16 -19 -25 -4 -8 13 4 32 16
25 5 -4 9 -13 9 -21z"/>
<path d="M1955 1192 c5 -34 3 -40 -26 -61 -24 -18 -28 -25 -18 -32 8 -5 22 -3
35 6 24 15 34 11 34 -16 0 -14 18 -29 35 -29 2 0 -1 17 -7 37 -9 35 -8 38 23
64 30 24 32 29 16 35 -11 4 -25 0 -36 -10 -18 -16 -19 -15 -29 13 -16 45 -35
40 -27 -7z"/>
<path d="M2890 1179 c-34 -14 -33 -11 -14 -78 17 -63 24 -68 68 -51 33 12 35
34 2 26 -17 -4 -26 -1 -30 10 -4 11 1 18 14 21 27 7 19 29 -8 25 -29 -4 -29
24 -1 31 12 3 18 10 14 16 -7 13 -12 13 -45 0z"/>
<path d="M2135 1157 c-11 -34 -25 -94 -25 -109 0 -24 26 -23 33 1 3 14 15 21
38 23 29 3 34 7 37 32 4 34 -4 43 -47 56 -23 6 -33 6 -36 -3z m53 -45 c2 -7
-3 -12 -12 -12 -9 0 -16 7 -16 16 0 17 22 14 28 -4z"/>
<path d="M2685 1130 c-6 -10 0 -72 11 -112 8 -28 34 -22 34 7 0 30 11 32 28 5
7 -11 21 -20 32 -20 20 0 20 1 3 27 -10 15 -18 43 -18 63 0 34 -1 35 -42 38
-22 2 -44 -2 -48 -8z m62 -33 c-6 -20 -27 -19 -27 2 0 14 5 19 15 14 9 -3 14
-10 12 -16z"/>
<path d="M2306 1122 c-2 -4 -6 -34 -7 -67 l-3 -60 42 -3 c46 -3 57 12 16 22
-25 7 -26 9 -19 61 5 45 4 55 -9 55 -8 0 -17 -3 -20 -8z"/>
<path d="M2482 1108 c-7 -7 -12 -31 -12 -54 0 -47 25 -74 67 -74 53 0 85 86
47 124 -18 19 -85 21 -102 4z m78 -34 c17 -45 -18 -82 -48 -52 -25 25 -8 78
25 78 8 0 18 -12 23 -26z"/>
<path d="M2629 239 c-29 -29 -21 -53 18 -57 63 -6 94 32 51 62 -30 21 -44 20
-69 -5z m34 -16 c9 -9 -13 -34 -24 -27 -14 8 -11 34 4 34 8 0 17 -3 20 -7z
m45 -5 c-6 -18 -28 -21 -28 -4 0 9 7 16 16 16 9 0 14 -5 12 -12z"/>
<path d="M2792 239 c-4 -11 -6 -37 -3 -57 l6 -37 3 33 c2 17 9 32 15 32 7 0 6
4 -3 11 -11 8 -12 12 -2 16 15 6 16 23 2 23 -6 0 -14 -9 -18 -21z"/>
<path d="M3120 250 c0 -5 5 -10 11 -10 5 0 7 5 4 10 -3 6 -8 10 -11 10 -2 0
-4 -4 -4 -10z"/>
<path d="M3158 254 c-12 -11 -10 -94 2 -94 6 0 10 5 10 12 0 6 9 3 20 -7 21
-19 29 -8 8 13 -8 8 -8 15 2 27 8 9 8 15 2 15 -6 0 -14 -6 -19 -12 -5 -9 -10
-1 -13 20 -3 19 -8 30 -12 26z"/>
<path d="M1859 233 c-4 -42 -3 -73 4 -73 4 0 7 18 7 40 0 22 -2 40 -5 40 -3 0
-5 -3 -6 -7z"/>
<path d="M2349 233 c-4 -42 -3 -73 4 -73 4 0 7 18 7 40 0 22 -2 40 -5 40 -3 0
-5 -3 -6 -7z"/>
<path d="M2410 203 c0 -24 2 -43 4 -43 8 0 12 60 4 72 -4 8 -8 -4 -8 -29z"/>
<path d="M1806 204 c-9 -24 -2 -26 12 -4 7 11 8 20 3 20 -5 0 -12 -7 -15 -16z"/>
<path d="M1892 208 c-5 -7 -6 -22 -2 -33 6 -17 8 -15 12 13 5 36 5 37 -10 20z"/>
<path d="M1936 207 c3 -10 9 -15 12 -12 3 3 0 11 -7 18 -10 9 -11 8 -5 -6z"/>
<path d="M1965 211 c-3 -5 -2 -12 3 -15 5 -3 9 1 9 9 0 17 -3 19 -12 6z"/>
<path d="M2032 190 c0 -19 2 -27 5 -17 2 9 2 25 0 35 -3 9 -5 1 -5 -18z"/>
<path d="M2105 176 c0 -24 3 -42 8 -39 4 2 7 22 7 44 0 21 -3 39 -7 39 -5 0
-8 -20 -8 -44z"/>
<path d="M2140 190 c0 -39 6 -39 12 0 3 17 1 30 -4 30 -4 0 -8 -13 -8 -30z"/>
<path d="M2189 188 c4 -28 6 -29 9 -9 2 13 0 27 -5 32 -6 6 -7 -3 -4 -23z"/>
<path d="M2222 208 c-14 -14 -16 -28 -3 -28 5 0 11 9 14 20 6 23 5 24 -11 8z"/>
<path d="M2266 207 c3 -10 9 -15 12 -12 3 3 0 11 -7 18 -10 9 -11 8 -5 -6z"/>
<path d="M2293 204 c-7 -19 7 -46 28 -52 8 -2 5 2 -5 10 -13 10 -17 22 -13 37
6 25 -1 28 -10 5z"/>
<path d="M2456 207 c3 -10 9 -15 12 -12 3 3 0 11 -7 18 -10 9 -11 8 -5 -6z"/>
<path d="M2486 207 c3 -10 9 -15 12 -12 3 3 0 11 -7 18 -10 9 -11 8 -5 -6z"/>
<path d="M2841 183 c1 -27 3 -31 6 -13 2 14 12 31 21 38 14 11 13 12 -6 12
-19 0 -22 -5 -21 -37z"/>
<path d="M2885 199 c-9 -28 17 -55 42 -44 16 7 15 9 -7 15 -22 7 -22 8 -4 9
26 1 34 9 27 27 -8 22 -51 17 -58 -7z m45 7 c0 -11 -19 -15 -25 -6 -3 5 1 10
9 10 9 0 16 -2 16 -4z"/>
<path d="M2964 206 c-13 -35 26 -71 49 -46 10 10 8 12 -5 7 -10 -3 -20 -2 -23
3 -4 6 3 10 15 10 15 0 20 5 18 18 -4 22 -46 29 -54 8z m36 -6 c0 -5 -4 -10
-10 -10 -5 0 -10 5 -10 10 0 6 5 10 10 10 6 0 10 -4 10 -10z"/>
<path d="M3041 173 c1 -27 3 -40 6 -30 3 12 11 16 22 12 24 -7 44 19 36 45 -4
14 -15 20 -36 20 -28 0 -29 -1 -28 -47z m49 17 c0 -21 -24 -28 -35 -10 -8 14
3 30 21 30 8 0 14 -9 14 -20z"/>
<path d="M3120 190 c0 -16 5 -30 10 -30 6 0 10 14 10 30 0 17 -4 30 -10 30 -5
0 -10 -13 -10 -30z"/>
<path d="M2525 191 c-3 -12 -11 -19 -16 -16 -5 3 -6 -2 -2 -11 5 -14 8 -12 20
11 8 15 12 29 10 32 -3 2 -8 -5 -12 -16z"/>
<path d="M1994 171 c0 -11 4 -17 8 -15 4 3 8 12 8 20 0 8 -4 14 -8 14 -4 0 -8
-9 -8 -19z"/>
<path d="M2060 170 c0 -5 5 -10 11 -10 5 0 7 5 4 10 -3 6 -8 10 -11 10 -2 0
-4 -4 -4 -10z"/>
<path d="M2662 173 c-18 -2 -30 -9 -27 -14 10 -14 61 -11 75 6 10 12 10 15 -1
13 -8 0 -29 -3 -47 -5z"/>
</g>
</svg>
